<svg width="720" height="720" viewBox="0 0 720 720" fill="none" xmlns="http://www.w3.org/2000/svg">
<rect width="720" height="720" rx="360" fill="url(#paint0_linear_691_2180)"/>
<path d="M180.696 352.496H223.832V368.624H180.696V352.496ZM182.232 389.36H231V406H161.624V316.4H229.336V333.04H182.232V389.36ZM247.499 406V316.4H264.651L317.515 380.912H309.195V316.4H329.675V406H312.651L259.659 341.488H267.979V406H247.499ZM350.874 406V316.4H368.026L406.17 379.632H397.082L434.586 316.4H451.61L451.866 406H432.41L432.282 346.224H435.866L405.914 396.528H396.57L365.978 346.224H370.33V406H350.874ZM473.124 406V316.4H513.828C523.556 316.4 532.132 318.277 539.556 322.032C546.98 325.701 552.783 330.864 556.964 337.52C561.145 344.176 563.236 352.069 563.236 361.2C563.236 370.245 561.145 378.139 556.964 384.88C552.783 391.536 546.98 396.741 539.556 400.496C532.132 404.165 523.556 406 513.828 406H473.124ZM493.86 388.976H512.804C518.777 388.976 523.94 387.867 528.292 385.648C532.729 383.344 536.143 380.101 538.532 375.92C541.007 371.739 542.244 366.832 542.244 361.2C542.244 355.483 541.007 350.576 538.532 346.48C536.143 342.299 532.729 339.099 528.292 336.88C523.94 334.576 518.777 333.424 512.804 333.424H493.86V388.976Z" fill="url(#paint1_linear_691_2180)"/>
<defs>
<linearGradient id="paint0_linear_691_2180" x1="360" y1="0" x2="360" y2="720" gradientUnits="userSpaceOnUse">
<stop stop-color="#3D348B"/>
<stop offset="1" stop-color="#040303"/>
</linearGradient>
<linearGradient id="paint1_linear_691_2180" x1="360" y1="282" x2="360" y2="438" gradientUnits="userSpaceOnUse">
<stop stop-color="#F3F3F3"/>
<stop offset="1" stop-color="#E6AF2E"/>
</linearGradient>
</defs>
</svg>
